<?xml version="1.0" encoding="UTF-8" standalone="no"?>
<svg
   version="1.1"
   width="297.5"
   height="421"
   viewBox="0 0 297.5 421"
   id="svg26"
   sodipodi:docname="12.svg"
   inkscape:version="1.4.3 (0d15f75, 2025-12-25)"
   xmlns:inkscape="http://www.inkscape.org/namespaces/inkscape"
   xmlns:sodipodi="http://sodipodi.sourceforge.net/DTD/sodipodi-0.dtd"
   xmlns:xlink="http://www.w3.org/1999/xlink"
   xmlns="http://www.w3.org/2000/svg"
   xmlns:svg="http://www.w3.org/2000/svg">
  <defs
     id="defs26">
    <pattern
       inkscape:collect="always"
       xlink:href="#halftones"
       preserveAspectRatio="xMidYMid"
       id="pattern_spots"
       patternTransform="scale(4)"
       x="0"
       y="0" />
    <pattern
       patternUnits="userSpaceOnUse"
       width="10"
       height="10"
       preserveAspectRatio="xMidYMid"
       style="fill:#000000"
       id="halftones"
       x="0"
       y="0"
       inkscape:label="Halftones"
       inkscape:collect="always"
       inkscape:isstock="true">
      <g
         id="fullPattern"
         style="display:inline"
         transform="scale(0.1)">
        <circle
           style="fill-opacity:1;stroke:none;paint-order:markers fill stroke;stop-color:#000000"
           id="circle10"
           cx="50"
           cy="50"
           r="25" />
        <path
           id="circle37"
           style="paint-order:markers fill stroke"
           d="M 25,0 A 25,25 0 0 1 0,25 25,25 0 0 1 -25,0 25,25 0 0 1 0,-25 25,25 0 0 1 25,0 Z" />
        <path
           id="circle39"
           style="paint-order:markers fill stroke"
           d="M 125,0 A 25,25 0 0 1 100,25 25,25 0 0 1 75,0 25,25 0 0 1 100,-25 25,25 0 0 1 125,0 Z" />
        <path
           id="circle43"
           style="paint-order:markers fill stroke"
           d="M 25,100 A 25,25 0 0 1 0,125 25,25 0 0 1 -25,100 25,25 0 0 1 0,75 25,25 0 0 1 25,100 Z" />
        <path
           id="circle45"
           style="paint-order:markers fill stroke"
           d="m 125,100 a 25,25 0 0 1 -25,25 25,25 0 0 1 -25,-25 25,25 0 0 1 25,-25 25,25 0 0 1 25,25 z" />
      </g>
    </pattern>
    <pattern
       inkscape:collect="always"
       xlink:href="#pattern4"
       preserveAspectRatio="xMidYMid"
       id="pattern_stripes"
       patternTransform="matrix(7.0710678,7.0710678,-7.0710678,7.0710678,0,0)"
       x="0"
       y="0" />
    <pattern
       inkscape:collect="always"
       patternUnits="userSpaceOnUse"
       width="2"
       height="10"
       patternTransform="translate(0,0) scale(2,2)"
       preserveAspectRatio="xMidYMid"
       id="pattern4"
       style="fill:#000000"
       inkscape:stockid="Stripes 01 (1:1)"
       inkscape:isstock="true"
       inkscape:label="Stripes 01 (1:1)">
      <rect
         style="stroke:none"
         x="0"
         y="-0.5"
         width="1"
         height="11"
         id="rect2" />
    </pattern>
    <pattern
       inkscape:collect="always"
       xlink:href="#halftones-1"
       preserveAspectRatio="xMidYMid"
       id="pattern2"
       patternTransform="matrix(2.1213203,2.1213203,-2.1213203,2.1213203,-43.663856,-43.663841)"
       x="0"
       y="-4.6" />
    <pattern
       patternUnits="userSpaceOnUse"
       width="10"
       height="10"
       preserveAspectRatio="xMidYMid"
       style="fill:#000000"
       id="halftones-1"
       x="0"
       y="0"
       inkscape:label="Halftones"
       inkscape:collect="always"
       inkscape:isstock="true">
      <g
         id="fullPattern-3"
         style="display:inline"
         transform="scale(0.1)">
        <circle
           style="fill-opacity:1;stroke:none;paint-order:markers fill stroke;stop-color:#000000"
           id="circle10-5"
           cx="50"
           cy="50"
           r="25" />
        <path
           id="circle37-9"
           style="paint-order:markers fill stroke"
           d="M 25,0 A 25,25 0 0 1 0,25 25,25 0 0 1 -25,0 25,25 0 0 1 0,-25 25,25 0 0 1 25,0 Z" />
        <path
           id="circle39-8"
           style="paint-order:markers fill stroke"
           d="M 125,0 A 25,25 0 0 1 100,25 25,25 0 0 1 75,0 25,25 0 0 1 100,-25 25,25 0 0 1 125,0 Z" />
        <path
           id="circle43-4"
           style="paint-order:markers fill stroke"
           d="M 25,100 A 25,25 0 0 1 0,125 25,25 0 0 1 -25,100 25,25 0 0 1 0,75 25,25 0 0 1 25,100 Z" />
        <path
           id="circle45-0"
           style="paint-order:markers fill stroke"
           d="m 125,100 a 25,25 0 0 1 -25,25 25,25 0 0 1 -25,-25 25,25 0 0 1 25,-25 25,25 0 0 1 25,25 z" />
      </g>
    </pattern>
    <pattern
       inkscape:collect="always"
       xlink:href="#halftones-6"
       preserveAspectRatio="xMidYMid"
       id="pattern2-3"
       patternTransform="matrix(2.1213203,2.1213203,-2.1213203,2.1213203,43.663854,43.663858)"
       x="0"
       y="-4.6" />
    <pattern
       patternUnits="userSpaceOnUse"
       width="10"
       height="10"
       preserveAspectRatio="xMidYMid"
       style="fill:#000000"
       id="halftones-6"
       x="0"
       y="0"
       inkscape:label="Halftones"
       inkscape:collect="always"
       inkscape:isstock="true">
      <g
         id="fullPattern-1"
         style="display:inline"
         transform="scale(0.1)">
        <circle
           style="fill-opacity:1;stroke:none;paint-order:markers fill stroke;stop-color:#000000"
           id="circle10-54"
           cx="50"
           cy="50"
           r="25" />
        <path
           id="circle37-2"
           style="paint-order:markers fill stroke"
           d="M 25,0 A 25,25 0 0 1 0,25 25,25 0 0 1 -25,0 25,25 0 0 1 0,-25 25,25 0 0 1 25,0 Z" />
        <path
           id="circle39-0"
           style="paint-order:markers fill stroke"
           d="M 125,0 A 25,25 0 0 1 100,25 25,25 0 0 1 75,0 25,25 0 0 1 100,-25 25,25 0 0 1 125,0 Z" />
        <path
           id="circle43-9"
           style="paint-order:markers fill stroke"
           d="M 25,100 A 25,25 0 0 1 0,125 25,25 0 0 1 -25,100 25,25 0 0 1 0,75 25,25 0 0 1 25,100 Z" />
        <path
           id="circle45-7"
           style="paint-order:markers fill stroke"
           d="m 125,100 a 25,25 0 0 1 -25,25 25,25 0 0 1 -25,-25 25,25 0 0 1 25,-25 25,25 0 0 1 25,25 z" />
      </g>
    </pattern>
  </defs>
  <sodipodi:namedview
     id="namedview26"
     pagecolor="#ffffff"
     bordercolor="#000000"
     borderopacity="0.25"
     inkscape:showpageshadow="2"
     inkscape:pageopacity="0.0"
     inkscape:pagecheckerboard="0"
     inkscape:deskcolor="#d1d1d1"
     inkscape:zoom="1.7458432"
     inkscape:cx="54.987756"
     inkscape:cy="217.94626"
     inkscape:window-width="1920"
     inkscape:window-height="1009"
     inkscape:window-x="1592"
     inkscape:window-y="-8"
     inkscape:window-maximized="1"
     inkscape:current-layer="svg26" />
  <rect
     style="fill:url(#pattern2);stroke:#000000;stroke-width:8.50401;stroke-linejoin:miter"
     id="rect1-6"
     width="51.018837"
     height="51.018837"
     x="184.85486"
     y="-25.509399"
     transform="rotate(45)" />
  <rect
     style="fill:url(#pattern2-3);stroke:#000000;stroke-width:8.50401;stroke-linejoin:miter"
     id="rect1-7"
     width="51.018837"
     height="51.018837"
     x="272.18256"
     y="61.818298"
     transform="rotate(45)" />
</svg>
