<?xml version="1.0" encoding="UTF-8" standalone="no"?>
<svg
   version="1.1"
   width="297.5"
   height="421"
   viewBox="0 0 297.5 421"
   id="svg26"
   sodipodi:docname="####1.svg"
   inkscape:version="1.4.2 (f4327f4, 2025-05-13)"
   xmlns:inkscape="http://www.inkscape.org/namespaces/inkscape"
   xmlns:sodipodi="http://sodipodi.sourceforge.net/DTD/sodipodi-0.dtd"
   xmlns="http://www.w3.org/2000/svg"
   xmlns:svg="http://www.w3.org/2000/svg">
  <defs
     id="defs26">
    <inkscape:path-effect
       effect="dashed_stroke"
       message=""
       id="path-effect1"
       is_visible="true"
       lpeversion="1"
       numberdashes="6"
       holefactor="0.3"
       splitsegments="true"
       halfextreme="true"
       unifysegment="true" />
  </defs>
  <sodipodi:namedview
     id="namedview26"
     pagecolor="#ffffff"
     bordercolor="#000000"
     borderopacity="0.25"
     inkscape:showpageshadow="2"
     inkscape:pageopacity="0.0"
     inkscape:pagecheckerboard="0"
     inkscape:deskcolor="#d1d1d1"
     inkscape:zoom="0.87292162"
     inkscape:cx="116.84898"
     inkscape:cy="201.04898"
     inkscape:window-width="1600"
     inkscape:window-height="829"
     inkscape:window-x="1912"
     inkscape:window-y="-8"
     inkscape:window-maximized="1"
     inkscape:current-layer="svg26" />
  <path
     id="rect1"
     style="fill:none;stroke:#000000;stroke-width:8.35625;stroke-dasharray:none;stroke-dashoffset:0"
     d="M 12.682129,31.050931 V 12.682129 l 17.688823,0 m 19.049502,0 H 84.7981 m 19.0495,0 h 35.37765 m 19.0495,0 h 35.37765 m 19.0495,0 h 35.37764 m 19.04951,0 h 17.68882 v 18.368802 m 0,19.781787 v 36.737605 m 0,19.781787 0,36.7376 m 0,19.78179 v 36.73761 m 0,19.78178 v 36.73761 m 0,19.78178 v 36.73761 m 0,19.78179 v 36.7376 m 0,19.78179 v 18.3688 h -17.68882 m -19.04951,0 H 212.7019 m -19.0495,0 -35.37765,0 m -19.0495,0 H 103.8476 m -19.0495,0 H 49.420454 m -19.049502,0 H 12.682129 l 0,-18.3688 m 0,-19.78179 v -36.7376 m 0,-19.78179 v -36.73761 m 0,-19.78178 v -36.73761 m 0,-19.78178 V 163.8715 m 0,-19.78179 v -36.7376 m 0,-19.781787 V 50.832718 m 0,-19.781787 V 12.682129"
     inkscape:path-effect="#path-effect1"
     inkscape:original-d="M 12.682129,12.682129 H 284.81787 V 408.31787 H 12.682129 Z" />
</svg>
